<?xml version="1.0" encoding="utf-8"?>
<!-- Generator: Adobe Illustrator 27.2.0, SVG Export Plug-In . SVG Version: 6.00 Build 0)  -->
<svg version="1.1" xmlns="http://www.w3.org/2000/svg" xmlns:xlink="http://www.w3.org/1999/xlink" x="0px" y="0px"
	 viewBox="0 0 2819.5 1600" style="enable-background:new 0 0 2819.5 1600;" xml:space="preserve">
<style type="text/css">
	.st0{fill:#F2DBFC;}
	.st1{fill:#0B2D4E;}
	.st2{fill:none;stroke:#0B2D4E;stroke-width:4;stroke-miterlimit:10;}
	.st3{fill:#061F33;}
	.st4{fill:#F8A17A;}
	.st5{fill:#642175;}
	.st6{clip-path:url(#SVGID_00000121968492206391798430000013676850236616821662_);fill:#3D1749;}
	.st7{fill:#E5785C;}
	.st8{fill:#D1B0E2;}
	.st9{fill:#FFFFFF;}
	.st10{fill:#3D1749;}
	.st11{opacity:0.1;}
	.st12{fill:#00A3D5;}
	.st13{fill:#FFC73C;}
	.st14{opacity:0.3;fill:#FFFFFF;}
	.st15{fill:#FFE9CC;}
	.st16{fill:#51666F;}
	.st17{fill:#D8584E;}
	.st18{fill:#8B4DA0;}
	.st19{opacity:0.2;fill:#FFFFFF;}
	.st20{fill:#EFB126;}
	.st21{clip-path:url(#SVGID_00000024711192084092841810000002693629378841451149_);}
	.st22{fill:none;stroke:#642175;stroke-width:5;stroke-miterlimit:10;}
	.st23{clip-path:url(#SVGID_00000041995154555301503330000014932871121029519032_);}
	.st24{fill:none;stroke:#3D1749;stroke-width:5;stroke-miterlimit:10;}
	.st25{opacity:0.1;fill:#231F20;}
</style>
<g id="Layer_2">
</g>
<g id="Layer_1">
	<path class="st0" d="M2124.5,871.3c0,177.2-65.3,339.1-173.2,463H886.8c-107.9-123.9-173.2-285.8-173.2-463
		c0-389.6,315.8-705.5,705.5-705.5C1808.7,165.8,2124.5,481.7,2124.5,871.3z"/>
	<g>
		<path class="st1" d="M1678.4,977.6c-41.6,17-94.1,11.9-130.9-14.3c-37-26.3-70.8-45.6-117.8-47c-29.2-0.9-56.5,11.3-84.3,18.3
			c-24.4,6.1-43.1,25.7-69.4,29.4c-34.6,4.7-70.2-16.5-85.7-47.8c-15.6-31.3-12.2-70.2,5.2-100.5c12.7-22.1,24.4-38.6,10.1-63.2
			c-3.1-5.4-7-10.3-9.2-16.2c-2-5.5-2.3-11.5-2.1-17.3c1.3-31.9,25.5-55.9,41.6-82.2c3.8-6.2,7.6-12.6,8.7-19.7
			c2.9-18.2-11.5-33.8-19.2-50.5c-24.9-54.1,17.6-115.6,59-148.1c24.4-19.2,53.7-26.9,80-42.5c12-7.1,22.9-15.9,35.1-22.8
			c21.2-12,44.2-12.5,67.7-9.2c66.9,9.4,143,58,158.5,128c10.5,47.5-6.7,102.6,40.3,135.9c14.2,10,32,16,41.7,30.4
			c20.5,30.6-9.6,75.9,9.1,107.7c4.2,7.1,10.4,12.6,16.1,18.6c30,31.3,45.6,76,41.3,119.2c-1,10.5-3.2,21.2-8.4,30.4
			c-7.1,12.7-19.3,21.6-31.1,30.1c-17.7,12.6-35.8,25.1-55.9,33.4C1678.8,977.4,1678.6,977.5,1678.4,977.6z"/>
		<path class="st2" d="M1739.1,800.3c-20.8-17.9-25.2-49.1-19.2-75.8c3.9-17.5,11.7-34.5,11-52.4c-0.9-22.4-16.5-43.6-37.6-51.1
			c-10.8-3.8-22.7-4.3-33-9.2c-15.6-7.5-24.2-23.2-29.9-38.8c-6.2-17-3.6-31.5-3.7-49.3c-0.1-22.7-0.7-45.5-3-68.2
			c-2.7-26.1-18.3-52-36.2-70.7c-2.6-2.7-5.3-5.3-8-7.8c-46.5-41.5-135.4-59.7-190.5-25.9c-11,6.7-17.8,16-26.5,24.9
			c-8.9,9.1-20.3,16.4-31,23.1c-21.6,13.6-44.9,24.3-67.7,35.6c-14.6,7.2-29.4,15-40.2,27.3c-12.9,14.8-18.6,35-18.1,54.6
			c0.6,19.6,7,38.7,16,56.2c6.4,12.3,14.1,24.1,18.1,37.4c6.6,21.6-6,42-22,55.8c-12.1,10.5-26,20.1-32.6,34.7
			c-5.5,12.1-5,26.8,1.3,38.5c5.9,10.9,16.3,19,21.8,30.2c5.3,10.7,5.4,23.8,0.4,34.6c-6.4,13.8-20.9,26.6-16.1,41"/>
		<path class="st3" d="M1590.2,769.6c2.6,17.3,0.6,35.1-7,50.9c-20.5,42.6-71.2,50.9-114,52.6c-15.8,0.6-31.7-0.2-47.4-2.5
			c-14-2.1-26.4,0-40.5-0.3c-27.9-0.6-55.6-8.9-79.2-23.8c-11.5-7.3-22.3-16.5-28.1-28.7c-8.1-16.8-5.7-36.7-1.5-54.9
			c2.5-10.5,5.6-21,11-30.3c5.8-10,14-18.5,18.8-29c9-19.7,1.6-42.7,9.6-62.1c6.3-15.1,22.1-32.2,35.2-41.7
			c17.8-12.9,40.9-16.9,62.8-15.4c22,1.5,43.2,8.1,64.1,15c16.5,5.4,30.6,2.1,42.7,15.7c9.6,10.8,6.2,28.4,9.3,41.5
			C1536.5,700.4,1583.3,723.6,1590.2,769.6z"/>
		<path class="st4" d="M1237.2,1178.1c-48.3-11.3-93.9-32.7-143-40.7c-31.1-5.1-87.8-13.1-104.3,21.2c-8.3,17.2-4.4,38.6,7.4,53.3
			c26.5,32.9,81.6,41.7,120.4,50c61.9,13.2,124.7,15.8,187.8,13.9c17.8-0.5,36.4-1.8,51.7-11c15.3-9.2,25.7-28.9,18.6-45.3
			c-10.8-25-50.7-24.5-73.4-28.3C1280.5,1187.4,1258.8,1183.1,1237.2,1178.1z"/>
		<path class="st5" d="M1292.7,963c-36.2,42-75.5,81.5-113.6,121.8c-7.9,8.3-15.7,16.6-23.2,25.3c-3.8,4.3-8.1,8.6-11.2,13.4
			c-2.5,3.9-8.1,11.7-13,22.7c-45.3-13.5-98.2-3.6-141.8,12.2c5-34.1,18.6-55,22.4-63.6c19.1-43.2,50.3-79.5,79.7-116
			c35.7-44.2,73.3-86.8,107.6-132.1c27.9-36.8,74.9-78.2,121.2-44.4c35.6,26,19.6,78.7,5,111.9C1318,932.1,1305.8,947.8,1292.7,963z
			"/>
		<path class="st4" d="M1581.3,1178.1c48.3-11.3,93.9-32.7,143-40.7c31.1-5.1,87.8-13.1,104.3,21.2c8.3,17.2,4.4,38.6-7.4,53.3
			c-26.5,32.9-81.6,41.7-120.4,50c-61.9,13.2-124.7,15.8-187.8,13.9c-17.8-0.5-36.4-1.8-51.7-11c-15.3-9.2-25.7-28.9-18.6-45.3
			c10.8-25,50.7-24.5,73.4-28.3C1538,1187.4,1559.7,1183.1,1581.3,1178.1z"/>
		<path class="st5" d="M1525.7,963c36.2,42,75.5,81.5,113.6,121.8c7.9,8.3,15.7,16.6,23.2,25.3c3.8,4.3,8.1,8.6,11.2,13.4
			c2.5,3.9,8.1,11.7,13,22.7c45.3-13.5,98.2-3.6,141.8,12.2c-5-34.1-18.6-55-22.4-63.6c-19.1-43.2-50.3-79.5-79.7-116
			c-35.7-44.2-73.3-86.8-107.6-132.1c-27.9-36.8-74.9-78.2-121.2-44.4c-35.6,26-19.6,78.7-5,111.9
			C1500.5,932.1,1512.6,947.8,1525.7,963z"/>
		<g>
			<defs>
				<path id="SVGID_1_" d="M1567.1,1303.9c18.2-16.2,1-63.5-2.1-81.2c-5.8-33.8-7.8-70.8,3.7-103.7c16.5-47.2,36.7-84.5,37.9-137.1
					c1.1-45-8-89.4-17.1-133.2c-8.9-43.4-13-56.1-55.5-62.7c-15.2-2.4-30.1-6.5-45.3-9.2c-25.7-4.6-51.7-6.6-77.7-6.7
					c-0.3,0-0.7,0-1,0c-0.3,0-0.7,0-1,0c-26.1,0-52.1,2.1-77.7,6.6c-15.1,2.7-30.1,6.8-45.3,9.2c-42.5,6.6-46.6,19.2-55.5,62.7
					c-9,43.9-18.1,88.2-17.1,133.2c1.2,52.6,21.4,89.8,37.9,137.1c17.5,50.1,4.2,101.4-9.1,150.2c-2,7.4-2.7,15.9,2,21.9
					c2.9,3.7,7.4,5.8,11.9,7.3c15,5.3,31,6.2,46.9,6.9c82,3.8,164.2,3.8,246.3,3.6c4.1,0,8.3,0,12-1.6
					C1563.5,1306.6,1565.4,1305.4,1567.1,1303.9z"/>
			</defs>
			<use xlink:href="#SVGID_1_"  style="overflow:visible;fill:#3D1749;"/>
			<clipPath id="SVGID_00000051382522089716031750000007538339677552141971_">
				<use xlink:href="#SVGID_1_"  style="overflow:visible;"/>
			</clipPath>
			<path style="clip-path:url(#SVGID_00000051382522089716031750000007538339677552141971_);fill:#3D1749;" d="M1544.2,795.9
				c2.6-8.1,12.5-26.1,7.5-33.2c-5-7.1-23.6-5.6-30.9-5.3c-80,2.7-159.9,5.4-239.9,8.1c4.6,17.1,4.8,33.1,11.4,50.1
				c5.6,14.4,13,28.1,22.5,40.3c18.9,24.4,45.6,41.6,76,47.5c51.5,10.1,108.4-15,134.5-60.6C1533.7,828.1,1539,811.9,1544.2,795.9z"
				/>
		</g>
		<path class="st4" d="M1350,854.9c25.1,28.5,73.2,30.7,106.9,19.1c22.9-7.9,39.2-26,39.6-50.9c0.5-27.8-23.8-47.6-30-73.5
			c-3.5-14.7-3.2-29.8-2.8-44.8c0.4-17.4,0.5-34.9,1.4-52.3c-17.3-3.6-31.3-5.5-49.6-4.7c-15.2,0.6-30.3-1-45.5-0.1
			c-1.2,0.1-2.5,0.2-3.4,1c-0.9,0.8-1,2.1-1.1,3.3c-2,23.6,0,47.4-1.6,71c-1.5,21.7-6.3,43.5-19,61.5
			C1329.4,806.4,1333.3,835.8,1350,854.9z"/>
		<g>
			<g>
				<path class="st0" d="M1396.1,400c12.6-6.5,26.8-9.7,41-10.3c14.2-0.6,28.5,1.2,42.4,4.4c27.9,6.2,54,20.4,74.2,40.7
					c20.3,20.1,34.5,46.8,38.5,75.4c2,14.3,1.3,28.6,1.5,42.7c0.3,14,1.4,28.3,7.2,40.8c5.9,12.4,16.1,22.5,27.4,30.7
					c11.4,8.2,23.9,14.8,36.1,22.3c6,3.7,12.4,7.7,16.8,13.9c4.5,6.4,5.4,14.1,5.5,21.3c0.1,7.3-0.8,14.5-2.7,21.5
					c-1.8,7-5.1,13.6-7.8,20c-2.8,6.4-4.5,13.1-3.8,20c0.6,6.8,2.9,13.5,5.9,19.9c6,12.7,13.4,24.9,19.5,37.8
					c6.1,12.8,10.8,26.6,11.9,40.9c1.3,14.2-0.5,28.6-5.2,42c4.4-13.5,5.8-27.9,4.2-41.9c-1.4-14.1-6.3-27.5-12.7-40.1
					c-6.3-12.7-13.8-24.7-20-37.6c-3.1-6.5-5.6-13.3-6.4-20.7c-0.9-7.4,1-14.8,3.7-21.4c2.7-6.7,5.8-12.9,7.4-19.7
					c1.8-6.7,2.6-13.7,2.5-20.6c-0.1-6.9-1.1-13.9-5-19.3c-3.8-5.4-9.8-9.2-15.8-12.9c-12-7.4-24.7-13.9-36.4-22.3
					c-11.6-8.3-22.4-18.7-28.8-32.1c-6.2-13.5-7.2-28.2-7.4-42.4c-0.2-14.2,0.5-28.4-1.3-42.3c-3.7-27.8-17.6-53.7-37.1-73.8
					c-19.6-20.1-45-34.4-72.5-40.9c-13.7-3.5-27.8-5.6-41.9-5.3C1423.1,390.9,1408.9,393.7,1396.1,400z"/>
			</g>
		</g>
		<path class="st7" d="M1465.6,746.1c-2.7-13.7-2.4-27.6-2.1-41.5c0.4-17.4,0.5-34.9,1.4-52.3c-17.3-3.6-31.3-5.5-49.6-4.7
			c-15.2,0.6-30.3-1-45.5-0.1c-1.2,0.1-2.5,0.2-3.4,1c-0.9,0.8-1,2.1-1.1,3.3c-2,23.6,0,47.4-1.6,71c-0.5,6.8-1.3,13.5-2.5,20.2
			c2.4,2.1,4.8,4.1,7.3,5.9c18.7,13.8,44,18.4,66.4,12.1C1446.1,757.8,1456.4,752.7,1465.6,746.1z"/>
		<path class="st4" d="M1529.5,559c-0.5-23.1-4-45-10.2-63.1c-26.8-78.1-125-96.1-183.2-38.9c-64.9,63.8-37.5,213.7,32.5,265.5
			c18.7,13.8,44,18.4,66.4,12.1C1502.9,715.3,1531,631.1,1529.5,559z"/>
		<path class="st7" d="M1529.4,491.2c-21.1-79.9-117.8-104.9-179.9-52c-9.9,8.4-16.8,18.5-23.9,29.3c-6,9.1-14.3,16-19.6,26.1
			c-5.4,10.3-8.8,21.7-9.9,33.3c-1.1,11.3,2.6,21.2,2.9,32c-0.3-11.3,4.6-22.7,13.1-30.2c6.6-5.9,14.9-9.3,22.6-13.6
			c7.7-4.3,15.2-10.2,18-18.5c24.7,32.4,63.1,42.3,100.8,51.7c31.7,7.8,66.4,27.8,67.1,64.8c0.1,4.7,0.4,6,2.4,12.1
			c2.2-5.6,3-9.6,3.7-15.6c0.7-6,2.4-12,3.6-18.1c2.4-12.4,4-25,4.6-37.6C1536.2,531.7,1534.3,509.7,1529.4,491.2z"/>
		<path class="st1" d="M1547.4,628.3c6.3-4.8,11.1-11.8,13.8-19.1c8.4-24.8,7.5-52.3,6.5-78.9c-0.6-14.8-1.2-29.9-5.2-44
			c-4.4-15.4-12.8-29.1-22.7-40.8c-28.6-33.9-71.4-51.1-112.5-47.6c-16.5,1.4-28.6,9.3-43.1,16c-14.2,6.6-30.8,10.2-45.7,15.1
			c-17.2,5.7-34.9,11.6-48.5,23.5c-10,8.7-17.2,20.2-22.4,32.3c-6.2,14.6-6.8,30.8-5,46.4c1.5,12.8,3.1,26.5,8.8,38.5
			c5.3,11.2,17.2,18.5,27.8,24.1c-1.6-0.8-0.2-19.3-0.3-22.2c-0.2-16.3,0.7-33.1,5.8-48.7c4.9-15.3,14.7-24.6,27.4-34
			c5.1-3.7,10.2-7.6,14.5-12.3c2.1-2.4,11.4-13.2,9.9-16.5c7.2,15.9,18.5,32.3,32.7,42.7c26.9,19.8,56.8,33.8,87.1,45.7
			c2.2,0.9,4.5,1.7,6.7,2.6c8.3,3.3,16.6,7.2,23.4,13.4c15.3,13.9,16.4,35.3,15.8,54.6c-0.1,2.1-0.1,4.3,0.6,6.3
			C1526,634.8,1541.3,633,1547.4,628.3z"/>
	</g>
	<path class="st5" d="M2372.5,1334.3H443.7c-19.6,0-35.6-16.2-35.6-36.1l0,0c0-19.9,15.9-36.1,35.6-36.1h1928.8
		c19.6,0,35.6,16.2,35.6,36.1l0,0C2408.1,1318.1,2392.1,1334.3,2372.5,1334.3z"/>
	<g>
		<path class="st8" d="M1666.5,1229.5h-510L1120,849.8c-0.7-6.8,4.6-12.7,11.3-12.7h560.4c6.7,0,12,5.9,11.3,12.7L1666.5,1229.5z"/>
		<path class="st9" d="M1670.5,1240.2h-518l-37.1-379.7c-0.7-6.8,4.7-12.7,11.5-12.7h569.2c6.8,0,12.2,5.9,11.5,12.7L1670.5,1240.2z
			"/>
		<rect x="1152.5" y="1240.2" class="st8" width="517.7" height="23"/>
		<path class="st8" d="M1447.4,1044c0,19.8-16.1,35.9-35.9,35.9c-19.8,0-35.9-16.1-35.9-35.9c0-19.8,16.1-35.9,35.9-35.9
			C1431.3,1008.1,1447.4,1024.2,1447.4,1044z"/>
	</g>
	<g>
		<g>
			
				<rect x="476.8" y="719.5" transform="matrix(0.9728 -0.2317 0.2317 0.9728 -214.2157 138.7837)" class="st5" width="13.7" height="523.3"/>
			
				<rect x="505.4" y="713.8" transform="matrix(0.9728 -0.2317 0.2317 0.9728 -213.6598 145.4348)" class="st5" width="13.7" height="536.8"/>
			
				<rect x="582.2" y="382.3" transform="matrix(0.671 0.7415 -0.7415 0.671 613.1385 -250.7211)" class="st5" width="13.7" height="366.4"/>
			
				<rect x="590.1" y="412.3" transform="matrix(0.671 0.7415 -0.7415 0.671 638.0027 -246.7129)" class="st5" width="13.7" height="366.4"/>
			<rect x="518.4" y="1240.2" class="st10" width="275.7" height="21.4"/>
			<path class="st5" d="M754.8,1197.5H557.8c-21.7,0-39.3,17.6-39.3,39.3v3.4h275.7v-3.4C794.2,1215.1,776.5,1197.5,754.8,1197.5z"
				/>
			<rect x="765.6" y="402.2" transform="matrix(0.5 0.866 -0.866 0.5 775.359 -444.3206)" class="st5" width="13.7" height="94.3"/>
			<path class="st10" d="M486.2,722.9l-19.4,26.9c-2.8,3.9-8,5.2-12.3,3L413.8,732c-5.3-2.7-7-9.6-3.4-14.4l30.9-42.2
				c3.8-5.2,11.4-5.3,15.4-0.4l29.1,36.1C488.6,714.6,488.7,719.4,486.2,722.9z"/>
			<circle class="st9" cx="418" cy="722.4" r="4.5"/>
			<path class="st9" d="M464,743.7c0,2.5-2,4.5-4.5,4.5c-2.5,0-4.5-2-4.5-4.5c0-2.5,2-4.5,4.5-4.5C462,739.2,464,741.2,464,743.7z"
				/>
			<path class="st9" d="M482.7,716.9c0,2.5-2,4.5-4.5,4.5c-2.5,0-4.5-2-4.5-4.5c0-2.5,2-4.5,4.5-4.5
				C480.7,712.5,482.7,714.5,482.7,716.9z"/>
			<path class="st10" d="M703.5,442.5l13.4,54c1.5,6,8.9,8.1,13.3,3.8l40.1-38.6c4.4-4.3,2.6-11.7-3.3-13.4l-53.4-15.4
				C707.5,431.2,702,436.5,703.5,442.5z"/>
			<path class="st9" d="M730,492.4c-1.3,2.1-4.1,2.6-6.2,1.3s-2.6-4.1-1.3-6.2c1.3-2.1,4.1-2.6,6.2-1.3
				C730.7,487.6,731.3,490.4,730,492.4z"/>
			<path class="st9" d="M717.5,444.8c-1.3,2.1-4.1,2.6-6.2,1.3c-2.1-1.3-2.6-4.1-1.3-6.2s4.1-2.6,6.2-1.3
				C718.2,440,718.8,442.8,717.5,444.8z"/>
			<path class="st9" d="M765.6,459.5c-1.3,2.1-4.1,2.6-6.2,1.3c-2.1-1.3-2.6-4.1-1.3-6.2c1.3-2.1,4.1-2.6,6.2-1.3
				S766.9,457.5,765.6,459.5z"/>
			<path class="st9" d="M453.9,680.2c0,2.5-2,4.5-4.5,4.5c-2.5,0-4.5-2-4.5-4.5c0-2.5,2-4.5,4.5-4.5
				C451.9,675.8,453.9,677.8,453.9,680.2z"/>
			<g>
				<defs>
					<path id="SVGID_00000036221935620534912320000016911314106980994740_" d="M904.8,447.8l-88.8,19l-26-121.5
						c-1.4-6.4,2.7-12.8,9.2-14.1l65.5-14c6.4-1.4,12.8,2.7,14.1,9.2L904.8,447.8z"/>
				</defs>
				<use xlink:href="#SVGID_00000036221935620534912320000016911314106980994740_"  style="overflow:visible;fill:#642175;"/>
				<clipPath id="SVGID_00000140002059837530255300000003087950743104165019_">
					<use xlink:href="#SVGID_00000036221935620534912320000016911314106980994740_"  style="overflow:visible;"/>
				</clipPath>
			</g>
			
				<rect x="806.2" y="404.9" transform="matrix(0.9779 -0.2092 0.2092 0.9779 -68.3797 187.3753)" class="st10" width="91.2" height="24.2"/>
			<polygon class="st5" points="1009,506.2 754,560.7 809.9,438.2 898.7,419.2 			"/>
			<path class="st11" d="M855.6,428.4l43.1-9.2l110.3,86.9c0,0-92.2,20.3-129.5,28"/>
			<path class="st11" d="M899.1,419.1l-43.4,9.3L833.3,324l32-6.9c6.3-1.3,12.5,2.7,13.8,9L899.1,419.1z"/>
		</g>
	</g>
	<g>
		<g>
			<path class="st12" d="M743.2,1175.2L743.2,1175.2c-1.4,0.3-2.8-0.6-3.1-2l-4.5-21.6c-0.3-1.4,0.6-2.8,2-3.1l0,0
				c1.4-0.3,2.8,0.6,3.1,2l4.5,21.6C745.6,1173.5,744.7,1174.9,743.2,1175.2z"/>
			<path class="st10" d="M710.2,1016.8L710.2,1016.8c-3.9,0.8-7.8-1.7-8.6-5.7l-5.4-25.8c-0.8-3.9,1.7-7.8,5.7-8.6l0,0
				c3.9-0.8,7.8,1.7,8.6,5.7l5.4,25.8C716.7,1012.1,714.1,1016,710.2,1016.8z"/>
			<path class="st12" d="M740.6,1162.7L740.6,1162.7c-3.9,0.8-7.8-1.7-8.6-5.7l-5.4-25.8c-0.8-3.9,1.7-7.8,5.7-8.6l0,0
				c3.9-0.8,7.8,1.7,8.6,5.7l5.4,25.8C747.1,1158,744.6,1161.9,740.6,1162.7z"/>
			<path class="st5" d="M714.1,995l-16.1,3.4c-4,0.8-6.6,4.8-5.8,8.8l13.7,65.7l17.1,65.4c1,3.8,4.8,6.2,8.7,5.4l9.5-2
				c3.9-0.8,6.5-4.5,5.8-8.5l-10.5-66.7l-13.7-65.7C722,996.8,718.1,994.2,714.1,995z"/>
			<path class="st10" d="M734.7,1071.3l-25.2,5.3c-2.4,0.5-4.7-1-5.1-3.4l0,0c-0.5-2.4,1-4.7,3.4-5.1l25.2-5.3
				c2.4-0.5,4.7,1,5.1,3.4l0,0C738.6,1068.5,737.1,1070.8,734.7,1071.3z"/>
			<path class="st10" d="M746,1060.1L746,1060.1c-1.8,0.4-3.7-0.8-4-2.6l-12.9-62c-0.4-1.8,0.8-3.7,2.6-4l0,0c1.8-0.4,3.7,0.8,4,2.6
				l12.9,62C749.1,1057.9,747.9,1059.7,746,1060.1z"/>
			
				<rect x="724.7" y="999.9" transform="matrix(0.9789 -0.2042 0.2042 0.9789 -190.7406 169.9896)" class="st10" width="7.1" height="18.6"/>
		</g>
		<g>
			
				<rect x="744.9" y="954.7" transform="matrix(0.9987 5.125135e-02 -5.125135e-02 0.9987 53.9665 -37.6661)" class="st13" width="33.1" height="157.4"/>
			
				<rect x="752.4" y="954.7" transform="matrix(0.9987 5.124070e-02 -5.124070e-02 0.9987 53.9551 -37.6585)" class="st14" width="18" height="157.4"/>
			<polygon class="st1" points="754.4,1164.8 773.9,1112.9 740.3,1111.2 			"/>
			<polygon class="st15" points="764.6,1137.7 773.9,1112.9 740.3,1111.2 747.1,1136.8 			"/>
			
				<rect x="749.3" y="938.5" transform="matrix(0.9987 5.125135e-02 -5.125135e-02 0.9987 49.5243 -38.0084)" class="st1" width="33.1" height="16.4"/>
			<path class="st10" d="M782.8,940l-33.1-1.7l0,0c0.5-9,8.2-16,17.2-15.5l0.3,0C776.3,923.2,783.3,930.9,782.8,940L782.8,940z"/>
		</g>
		<g>
			
				<rect x="780.1" y="995.7" transform="matrix(-0.908 -0.4191 0.4191 -0.908 1069.6929 2383.853)" class="st13" width="33.1" height="157.4"/>
			
				<rect x="787.6" y="995.7" transform="matrix(-0.9079 -0.4191 0.4191 -0.9079 1069.6825 2383.855)" class="st14" width="18" height="157.4"/>
			<polygon class="st1" points="852,955.2 814.6,996 845.2,1010.2 			"/>
			<polygon class="st15" points="832.5,976.5 814.6,996 845.2,1010.2 848.4,983.8 			"/>
			
				<rect x="743.7" y="1145.2" transform="matrix(-0.908 -0.4191 0.4191 -0.908 967.1405 2519.1345)" class="st16" width="33.1" height="16.4"/>
			<path class="st17" d="M742,1153.3l30.1,13.9l-6,13.1c-0.5,1-1.7,1.4-2.7,1L737,1169c-1-0.5-1.4-1.7-1-2.7L742,1153.3z"/>
		</g>
		<g>
			
				<rect x="706.8" y="1101" transform="matrix(-1 -1.224647e-16 1.224647e-16 -1 1513.8242 2362.7776)" class="st18" width="100.2" height="160.8"/>
			
				<rect x="706.8" y="1101" transform="matrix(-1 -1.224647e-16 1.224647e-16 -1 1463.7217 2362.7776)" class="st11" width="50.1" height="160.8"/>
		</g>
	</g>
	<g>
		<g>
			<g>
				<path class="st13" d="M939.2,1262.2h-62.8c-18.8,0-34-15.2-34-34v-153.3h130.8v153.3C973.2,1246.9,958,1262.2,939.2,1262.2z"/>
				<path class="st13" d="M982.4,1117.2c-31.4,0-56.8,25.8-56.8,57.6s25.4,57.6,56.8,57.6c31.4,0,56.8-25.8,56.8-57.6
					S1013.7,1117.2,982.4,1117.2z M982.4,1211.9c-20.2,0-36.5-16.6-36.5-37.1c0-20.5,16.4-37.1,36.5-37.1
					c20.2,0,36.5,16.6,36.5,37.1C1018.9,1195.3,1002.5,1211.9,982.4,1211.9z"/>
				<path class="st19" d="M862,1191.1L862,1191.1c-3.9,0-7.1-3.2-7.1-7.1v-91.2c0-3.9,3.2-7.1,7.1-7.1l0,0c3.9,0,7.1,3.2,7.1,7.1
					v91.2C869.1,1187.9,865.9,1191.1,862,1191.1z"/>
				<path class="st20" d="M943,1074.9V1229c0,18.3-14.8,33.1-33.1,33.1h30.2c18.3,0,33.1-14.8,33.1-33.1v-154.2H943z"/>
			</g>
		</g>
	</g>
	<g>
		<g>
			<defs>
				<path id="SVGID_00000080915791302130388120000016312137889059288233_" d="M2096.5,451.4c-13.1-0.1-25.7-1.8-34.7-14.6
					c-17.6-25.2-44.4-47.7-74.4-22.2c-17.3,14.8-4.3,45.1-19.2,59.7c-13.2,12.9-30,10.8-36.7,32.2c-9.9,31.5,21.4,59.1,31.4,86.4
					c8.4,22.9-10.5,31.6-19,49.4c-6.6,13.7-3.2,28.5,4,41.6c12.6,23.2,40.6,41.8,34.1,71.8c-5.4,25-10.4,47.3,11.6,66.3
					c15.1,13,43.2,24.9,41.1,48.9c-0.8,8.5-6.7,15.8-8.3,24.2c-2.6,13.3,6.1,26.2,16,35.3c22.7,20.8,42.7,40.3,59.8,66.4
					c7.3,11.2,36.4,36.4,24.8,51.6c21.2-27.7,43.6-54.6,62.8-83.8c15.8-24,39.7-59,23.4-88.6c-5.1-9.2-14.4-16-17-26.2
					c-4.6-18.4,13.4-35.4,20.1-51c10.5-24.5,2.8-53-15.7-71.4c-8.8-8.7-18.3-18.3-19.6-30.6c-1.4-13.4,7-25.9,10.8-38.3
					c3.5-11.4,5.7-23.5,7-35.4c0.9-8.4,1.3-16.9-0.7-25.1c-3.7-15.6-17.8-24.2-28.1-35.3c-24.7-26.3-11.7-57.2-22.5-87.8
					C2137.7,447.9,2116.6,451.6,2096.5,451.4z"/>
			</defs>
			<use xlink:href="#SVGID_00000080915791302130388120000016312137889059288233_"  style="overflow:visible;fill:#8B4DA0;"/>
			<clipPath id="SVGID_00000007420063224869274980000014662599029110961330_">
				<use xlink:href="#SVGID_00000080915791302130388120000016312137889059288233_"  style="overflow:visible;"/>
			</clipPath>
			<g style="clip-path:url(#SVGID_00000007420063224869274980000014662599029110961330_);">
				<path class="st22" d="M2129.6,1079.9c9.2-105.1,0.7-211.1-18.7-314.7c-18.5-98.8-42.8-197.9-79.7-291.5
					c-12.2-30.9-25.9-61.3-41.4-90.7"/>
				<path class="st22" d="M1906.7,524c51.8,18.3,101.1,43.3,146.4,74.2c11.5,7.9,17.9,10.3,27.5,20.4"/>
				<path class="st22" d="M2105.2,731.2c-49.7-32.1-106-53.8-164.4-63.4"/>
				<path class="st22" d="M2124.9,866.9c-46.2-40.1-102.6-68.3-162.3-81.5"/>
				<path class="st22" d="M2078.1,615.1c3.6-55.6,17.5-110.6,40.6-161.3"/>
				<path class="st22" d="M2104.6,726.7c23.5-50.3,57.4-95.6,99-132.3"/>
				<path class="st22" d="M2127.9,870.7c3.2-15.5,8.9-30.5,16.8-44.3c9.2-16,21.1-30.2,33.3-44.1c8.8-10,17.7-19.8,26.8-29.5"/>
			</g>
		</g>
		<g>
			<defs>
				<path id="SVGID_00000128454313606642337460000012214669353480855959_" d="M2256.9,643.1c9.5,1.8,18.9,2.3,27.2-5.8
					c16.2-15.8,38.8-28.5,57.1-5.8c10.5,13.1-3.1,33.3,5.7,46c7.8,11.2,20.3,12,22.2,28.4c2.8,24.2-23.7,39.9-34.7,58.3
					c-9.3,15.4,3.3,24.4,7,38.5c2.9,10.9-1.6,21.1-8.6,29.6c-12.4,15.1-35.2,24.7-34.7,47.4c0.5,18.9,1,35.8-17.6,46.5
					c-12.8,7.3-34.8,12-36.6,29.8c-0.6,6.3,2.6,12.4,2.7,18.7c0,10-8,18.2-16.5,23.4c-19.4,11.9-36.6,23.3-52.6,39.9
					c-6.8,7.1-31.5,21.3-25.1,34c-11.5-23-24-45.7-34-69.5c-8.2-19.6-20.6-48.3-4.7-67.5c4.9-6,12.7-9.6,16-16.6
					c5.9-12.7-4.8-27.5-7.5-39.8c-4.2-19.2,5.3-38.8,21.3-49.6c7.6-5.1,15.8-10.7,18.4-19.5c2.9-9.5-1.5-19.8-2.5-29.3
					c-1-8.8-0.9-17.9-0.2-26.6c0.5-6.2,1.4-12.5,4-18.1c4.9-10.8,16.2-15.1,25.3-21.7c21.6-15.7,16.4-39.9,28.5-60.6
					C2227.5,634.8,2242.3,640.4,2256.9,643.1z"/>
			</defs>
			<use xlink:href="#SVGID_00000128454313606642337460000012214669353480855959_"  style="overflow:visible;fill:#642175;"/>
			<clipPath id="SVGID_00000179612550624362071330000010806033856990899622_">
				<use xlink:href="#SVGID_00000128454313606642337460000012214669353480855959_"  style="overflow:visible;"/>
			</clipPath>
			<g style="clip-path:url(#SVGID_00000179612550624362071330000010806033856990899622_);">
				<path class="st24" d="M2146,1094.4c7.9-77.5,28.7-153.2,57.1-225.7c27.1-69.1,58.5-137.6,98.2-200.4
					c13.1-20.8,27.2-40.9,42.6-60.1"/>
				<path class="st24" d="M2384.5,722c-40.1,6.1-79.3,17.4-116.5,33.6c-9.4,4.1-14.4,5-22.8,11"/>
				<path class="st24" d="M2211.9,844.8c40.5-16.4,84.3-24.4,128-23.3"/>
				<path class="st24" d="M2178.9,940.5c39.1-22.7,83.9-35.4,129-36.6"/>
				<path class="st24" d="M2247.6,764.4c5.1-40.9,2.6-82.6-7.2-122.6"/>
				<path class="st24" d="M2213,841.6c-10.1-39.7-28.4-77.3-53.5-109.7"/>
				<path class="st24" d="M2176.1,942.9c-0.2-11.7-2.3-23.4-6.1-34.5c-4.4-12.9-11.1-24.9-18.1-36.6c-5-8.5-10.1-16.8-15.3-25.1"/>
			</g>
		</g>
		<polygon class="st20" points="2053.7,1067.5 2247.6,1067.5 2213.6,1261.5 2087.7,1261.5 		"/>
		
			<rect x="2030" y="1013.1" transform="matrix(-1 -1.224647e-16 1.224647e-16 -1 4301.2969 2080.6453)" class="st13" width="241.3" height="54.5"/>
		<polygon class="st25" points="2243.1,1093.3 2058.2,1093.3 2053.7,1067.5 2247.6,1067.5 		"/>
	</g>
</g>
</svg>
