<svg width="18" height="22" viewBox="0 0 18 22" fill="none" xmlns="http://www.w3.org/2000/svg">
<g clip-path="url(#clip0_328_2975)">
<path d="M16.9894 6.8604C15.1132 6.8604 13.237 6.86097 11.3607 6.8604C10.6972 6.8604 10.4017 6.56711 10.4017 5.90765C10.4011 4.03198 10.4017 2.15575 10.4017 0.280087V0H10.1572C7.12786 0 4.09856 0 1.06927 0C0.373066 0 0 0.375936 0 1.07902V20.8406C0 21.507 0.15841 21.7457 0.768516 22H16.4981C17.1088 21.744 17.2667 21.5053 17.2667 20.8401V6.8604H16.9894ZM13.5561 17.6208C13.4849 17.6277 13.4132 17.6277 13.3414 17.6277C10.1991 17.6282 7.05612 17.6282 3.91375 17.6277C3.4259 17.6277 3.12629 17.4147 3.03504 17.0089C2.93173 16.5498 3.26232 16.0975 3.73181 16.0682C3.93843 16.055 4.14677 16.0625 4.35397 16.0625C5.78597 16.0619 7.2174 16.0625 8.6494 16.0625C10.2312 16.0625 11.8136 16.0614 13.3954 16.0631C13.8534 16.0637 14.153 16.295 14.2356 16.7019C14.3252 17.1433 14.0049 17.5777 13.5561 17.6208ZM14.2132 11.7171C14.1185 12.0133 13.9108 12.1975 13.5997 12.2509C13.509 12.2664 13.4149 12.2693 13.3219 12.2693C10.1939 12.2704 7.0653 12.2704 3.93728 12.2693C3.45115 12.2693 3.14696 12.0696 3.04422 11.6896C2.90705 11.1794 3.27208 10.7018 3.81503 10.699C4.87454 10.6932 5.93405 10.6967 6.99356 10.6967H10.0556C11.1828 10.6961 12.3095 10.6955 13.4367 10.6984C14.0015 10.6995 14.3803 11.1977 14.2132 11.7166V11.7171Z" fill="#B290BA"/>
<path d="M16.0739 5.27176H11.9949V1.19214C13.3546 2.5524 14.716 3.9138 16.0739 5.27176Z" fill="#B290BA"/>
</g>
<defs>
<clipPath id="clip0_328_2975">
<rect width="17.2667" height="22" fill="white"/>
</clipPath>
</defs>
</svg>
