<svg width="62" height="62" viewBox="0 0 62 62" fill="none" xmlns="http://www.w3.org/2000/svg">
<path d="M34.6257 0C22.8713 0 12.8945 7.43725 9.04886 17.8131C4.22372 18.2847 0.450684 22.3117 0.450684 27.282C0.450684 30.2932 1.86557 32.9778 4.07861 34.7192C3.67954 41.1769 5.96513 47.7798 10.9717 52.6412C13.9103 55.5073 17.3931 57.3212 21.0936 58.3008C21.1661 60.3324 22.7987 61.965 24.8303 61.965C26.862 61.965 28.6034 60.2961 28.6034 58.1919C28.6034 56.0877 26.9345 54.4189 24.8303 54.4189C23.3066 54.4189 21.9643 55.3621 21.3838 56.6682C18.0098 55.7612 14.781 54.0561 12.0963 51.444C7.67025 47.1267 5.56606 41.3946 5.6749 35.6988C6.72699 36.243 7.85165 36.5695 9.08514 36.7146C12.9307 47.0905 22.9075 54.5277 34.662 54.5277C49.7179 54.5277 61.944 42.3016 61.944 27.2457C61.944 12.1898 49.6816 0 34.6257 0ZM34.6257 51.2263C21.3113 51.2263 10.5363 40.4514 10.5363 27.1369C10.5363 13.8224 21.3113 3.08374 34.6257 3.08374C47.9402 3.08374 58.7152 13.8587 58.7152 27.1732C58.7152 40.4876 47.9402 51.2626 34.6257 51.2626V51.2263Z" fill="#642175"/>
<path d="M43.4416 28.6241C46.4165 28.6241 48.8109 26.1933 48.8109 23.2185C48.8109 20.2436 46.3802 17.8491 43.4416 17.8491C40.503 17.8491 38.0723 20.2798 38.0723 23.2185C38.0723 26.1571 40.503 28.6241 43.4416 28.6241Z" fill="#642175"/>
<path d="M25.7731 28.6241C28.748 28.6241 31.1425 26.1933 31.1425 23.2185C31.1425 20.2436 28.7118 17.8491 25.7731 17.8491C22.8345 17.8491 20.4038 20.2798 20.4038 23.2185C20.4038 26.1571 22.7982 28.6241 25.7731 28.6241Z" fill="#642175"/>
<path d="M34.6251 46.0017C27.8046 46.0017 21.8185 42.4463 18.4082 37.1133H16.7031C20.2948 43.317 26.9702 47.4891 34.6251 47.4891C42.28 47.4891 48.9917 43.317 52.547 37.1133H50.8419C47.4316 42.4463 41.4456 46.0017 34.6251 46.0017Z" fill="#642175"/>
</svg>
