<svg width="18" height="23" viewBox="0 0 18 23" fill="none" xmlns="http://www.w3.org/2000/svg">
<g clip-path="url(#clip0_330_3403)">
<path d="M17.3756 7.01632C15.4567 7.01632 13.5378 7.01691 11.6189 7.01632C10.9404 7.01632 10.6381 6.71637 10.6381 6.04191C10.6375 4.12362 10.6381 2.20474 10.6381 0.286452V0H10.388C7.28986 0 4.19171 0 1.09357 0C0.381545 0 0 0.38448 0 1.10355V21.3143C0 21.9958 0.16201 22.24 0.785983 22.5H16.8731C17.4977 22.2382 17.6591 21.994 17.6591 21.3137V7.01632H17.3756ZM13.8642 18.0212C13.7914 18.0283 13.718 18.0283 13.6446 18.0283C10.4309 18.0289 7.21648 18.0289 4.0027 18.0283C3.50376 18.0283 3.19735 17.8105 3.10402 17.3955C2.99836 16.9259 3.33646 16.4634 3.81662 16.4334C4.02794 16.4199 4.24102 16.4276 4.45292 16.4276C5.91747 16.427 7.38143 16.4276 8.84597 16.4276C10.4637 16.4276 12.0821 16.4264 13.6998 16.4282C14.1682 16.4287 14.4746 16.6653 14.5592 17.0815C14.6507 17.5329 14.3232 17.9772 13.8642 18.0212ZM14.5363 11.9834C14.4394 12.2863 14.2269 12.4748 13.9088 12.5293C13.816 12.5452 13.7198 12.5481 13.6247 12.5481C10.4256 12.5493 7.22587 12.5493 4.02677 12.5481C3.52958 12.5481 3.21848 12.3439 3.11341 11.9553C2.97312 11.4334 3.34644 10.9451 3.90174 10.9421C4.98533 10.9363 6.06891 10.9398 7.1525 10.9398H10.2841C11.437 10.9392 12.5892 10.9386 13.7421 10.9415C14.3197 10.9427 14.7071 11.4522 14.5363 11.9829V11.9834Z" fill="white"/>
<path d="M16.4393 5.39158H12.2676V1.21924C13.6582 2.61041 15.0505 4.00276 16.4393 5.39158Z" fill="white"/>
</g>
<defs>
<clipPath id="clip0_330_3403">
<rect width="17.6591" height="22.5" fill="white"/>
</clipPath>
</defs>
</svg>
