<svg width="17" height="17" viewBox="0 0 17 17" fill="none" xmlns="http://www.w3.org/2000/svg">
<g clip-path="url(#clip0_330_3994)">
<path d="M3.24101 7.73774C3.00003 7.73774 2.80444 7.54215 2.80444 7.30117C2.80444 4.80399 4.83536 2.77307 7.33254 2.77307C7.57352 2.77307 7.76911 2.96865 7.76911 3.20964C7.76911 3.45063 7.57352 3.64621 7.33254 3.64621C5.31734 3.64621 3.67758 5.28596 3.67758 7.30117C3.67758 7.54215 3.482 7.73774 3.24101 7.73774Z" fill="#642175"/>
<path fill-rule="evenodd" clip-rule="evenodd" d="M16.745 15.5104L13.0412 11.8083C14.0174 10.5667 14.6006 9.0038 14.6006 7.30118C14.6006 3.26903 11.3316 0 7.30118 0C3.27078 0 0 3.26903 0 7.30118C0 11.3333 3.26903 14.6024 7.30118 14.6024C9.00206 14.6024 10.5667 14.0191 11.8083 13.0429L15.5122 16.7468C15.6833 16.9179 15.9068 17.0017 16.1304 17.0017C16.3539 17.0017 16.5774 16.9162 16.7485 16.7468C17.0891 16.4063 17.0891 15.8527 16.7485 15.5122L16.745 15.5104ZM1.74628 7.30118C1.74628 4.23821 4.23821 1.74628 7.30118 1.74628C10.3642 1.74628 12.8561 4.23821 12.8561 7.30118C12.8561 10.3642 10.3642 12.8561 7.30118 12.8561C4.23821 12.8561 1.74628 10.3642 1.74628 7.30118Z" fill="#642175"/>
</g>
<defs>
<clipPath id="clip0_330_3994">
<rect width="17" height="17" fill="white"/>
</clipPath>
</defs>
</svg>
