<?xml version="1.0" encoding="utf-8"?>
<!-- Generator: Adobe Illustrator 27.2.0, SVG Export Plug-In . SVG Version: 6.00 Build 0)  -->
<svg version="1.1" id="Camada_1" xmlns="http://www.w3.org/2000/svg" xmlns:xlink="http://www.w3.org/1999/xlink" x="0px" y="0px"
	 viewBox="0 0 17 17" style="enable-background:new 0 0 17 17;" xml:space="preserve">
<style type="text/css">
	.st0{clip-path:url(#SVGID_00000124160343718576235480000001116661004803203970_);}
	.st1{fill:#FFFFFF;}
	.st2{fill-rule:evenodd;clip-rule:evenodd;fill:#FFFFFF;}
</style>
<g>
	<defs>
		<rect id="SVGID_1_" y="0" width="17" height="17"/>
	</defs>
	<clipPath id="SVGID_00000183971844630376822220000000844011844336674205_">
		<use xlink:href="#SVGID_1_"  style="overflow:visible;"/>
	</clipPath>
	<g style="clip-path:url(#SVGID_00000183971844630376822220000000844011844336674205_);">
		<path class="st1" d="M3.2,7.7C3,7.7,2.8,7.5,2.8,7.3c0-2.5,2-4.5,4.5-4.5c0.2,0,0.4,0.2,0.4,0.4S7.6,3.6,7.3,3.6
			c-2,0-3.7,1.6-3.7,3.7C3.7,7.5,3.5,7.7,3.2,7.7z"/>
		<path class="st2" d="M16.7,15.5L13,11.8c1-1.2,1.6-2.8,1.6-4.5c0-4-3.3-7.3-7.3-7.3C3.3,0,0,3.3,0,7.3c0,4,3.3,7.3,7.3,7.3
			c1.7,0,3.3-0.6,4.5-1.6l3.7,3.7c0.2,0.2,0.4,0.3,0.6,0.3c0.2,0,0.4-0.1,0.6-0.3C17.1,16.4,17.1,15.9,16.7,15.5L16.7,15.5z
			 M1.7,7.3c0-3.1,2.5-5.6,5.6-5.6c3.1,0,5.6,2.5,5.6,5.6c0,3.1-2.5,5.6-5.6,5.6C4.2,12.9,1.7,10.4,1.7,7.3z"/>
	</g>
</g>
</svg>
