<svg width="18" height="21" viewBox="0 0 18 21" fill="none" xmlns="http://www.w3.org/2000/svg">
<g clip-path="url(#clip0_38_2244)">
<path d="M13.9171 17.4884H3.12972C3.07007 17.4529 3.005 17.4798 2.94285 17.4708C2.52989 17.4734 2.09816 16.9712 2.07564 16.4424C2.06187 16.1202 2.0698 15.7975 2.07355 15.4747C2.07438 15.4017 2.07772 15.3256 2.1453 15.276C2.25 15.2221 2.36262 15.2384 2.47274 15.2384C5.61874 15.2375 8.76473 15.2375 11.9103 15.2375C11.9879 15.2375 12.0655 15.2375 12.1435 15.2375C12.5252 15.2345 12.702 15.0601 12.7191 14.6725C12.7246 14.5536 12.7504 14.4352 12.7225 14.3164C12.7145 12.5665 12.7208 10.8162 12.7187 9.06631C12.7187 8.96971 12.7212 8.87311 12.7175 8.77651C12.7062 8.48842 12.5126 8.29095 12.2294 8.27855C12.141 8.27471 12.0521 8.27684 11.9633 8.27684C8.79727 8.27684 5.63084 8.27684 2.46482 8.27599C2.35011 8.27599 2.23039 8.29779 2.12527 8.22427C2.06396 8.1546 2.06604 8.0674 2.06604 7.98235C2.06479 5.7033 2.06437 3.42467 2.06604 1.14562C2.06604 1.06014 2.07564 0.975935 2.09441 0.892159C2.22205 0.324106 2.60706 0.00438911 3.17269 0.00353425C4.45912 0.00225196 5.74596 0.00353425 7.03239 0.00353425C8.1916 0.00353425 9.35039 0.00353425 10.5096 0.00438911C10.5692 0.00438911 10.6318 -0.0114258 10.689 0.0206314C10.7219 0.107399 10.7161 0.198442 10.7157 0.288629C10.7157 1.20888 10.7328 2.12956 10.7098 3.04939C10.6935 3.7025 10.9584 4.20217 11.6755 4.33638C11.7677 4.37057 11.8294 4.4458 11.8957 4.51376C12.8614 5.5024 13.8266 6.49147 14.7914 7.48097C14.8615 7.55278 14.9416 7.61818 14.9662 7.72546C14.9821 7.79855 14.9808 7.8725 14.9808 7.94644C14.9808 10.7281 14.9808 13.5103 14.9816 16.292C14.9816 16.6621 14.8732 16.9819 14.6071 17.2413C14.469 17.3759 14.3092 17.455 14.1199 17.4704C14.0527 17.4807 13.9822 17.4533 13.9167 17.4888L13.9171 17.4884Z" fill="#E1E4E6"/>
<path d="M2.1299 14.7643C1.62017 14.7626 1.11044 14.7613 0.600703 14.7587C0.216109 14.757 0.000869836 14.5403 0.000869836 14.1496C3.55756e-05 12.372 3.55756e-05 10.5947 0.000869836 8.81704C0.000869836 8.42679 0.216526 8.21051 0.60112 8.20838C1.11085 8.20581 1.62059 8.20453 2.13032 8.20239C2.20248 8.2041 2.27423 8.20795 2.34639 8.20795C5.60251 8.20795 8.85863 8.20795 12.1147 8.20795C12.599 8.20795 12.7851 8.40029 12.7851 8.89996C12.7851 10.6165 12.7851 12.3335 12.7851 14.05C12.7851 14.1351 12.7822 14.2206 12.7805 14.3056C12.72 14.6561 12.5623 14.8002 12.2132 14.8233C12.1469 14.8275 12.0801 14.8263 12.0138 14.8263C8.8311 14.8263 5.6484 14.8263 2.46569 14.8254C2.3514 14.8254 2.23043 14.8498 2.13032 14.7639L2.1299 14.7643Z" fill="#F05642"/>
<path d="M2.12988 14.7642C2.20205 14.7625 2.27379 14.759 2.34596 14.759C5.60625 14.759 8.86654 14.759 12.1268 14.759C12.4977 14.759 12.6466 14.6552 12.7805 14.3064C12.7821 14.4483 12.7855 14.5906 12.7846 14.7325C12.7826 15.0647 12.5535 15.3044 12.2328 15.3044C8.86654 15.3044 5.49988 15.304 2.13364 15.3032C2.13239 15.1236 2.13113 14.9441 2.1303 14.7646L2.12988 14.7642Z" fill="#C9D0D7"/>
<path d="M5.19024 11.6103C5.19024 11.2183 5.18857 10.8268 5.19108 10.4348C5.19233 10.2352 5.27242 10.122 5.45762 10.1121C5.89978 10.0882 6.34694 10.0561 6.7841 10.1369C7.47778 10.2651 7.9287 10.8977 7.89992 11.6526C7.86488 12.5609 7.29842 13.1199 6.41077 13.1212C6.11711 13.1217 5.82345 13.1234 5.52979 13.1208C5.27993 13.1187 5.19191 13.0268 5.19066 12.769C5.18899 12.3831 5.19066 11.9967 5.19066 11.6107L5.19024 11.6103Z" fill="#FEFEFE"/>
<path d="M2.32543 11.5855C2.32543 11.1936 2.32334 10.8016 2.32626 10.4097C2.32793 10.1831 2.42846 10.0639 2.64662 10.0617C3.0066 10.0583 3.36742 10.0352 3.72657 10.0767C4.30805 10.1434 4.68889 10.6234 4.64134 11.2239C4.59128 11.8552 4.21294 12.2224 3.591 12.239C3.39704 12.2442 3.20265 12.2446 3.00911 12.239C2.91317 12.2361 2.88397 12.272 2.88563 12.3668C2.88855 12.531 2.88981 12.6968 2.87312 12.8597C2.8556 13.0311 2.74464 13.1255 2.60032 13.1187C2.44932 13.1114 2.3321 12.9986 2.3296 12.8298C2.32334 12.4151 2.32751 12.0005 2.32751 11.5855C2.32668 11.5855 2.32585 11.5855 2.32543 11.5855Z" fill="#FEFEFE"/>
<path d="M2.8879 11.1141C2.90667 10.97 2.81281 10.7465 2.92627 10.6379C3.03014 10.5383 3.24329 10.6148 3.40806 10.6097C3.49065 10.6071 3.57449 10.6097 3.65583 10.6221C3.93614 10.6635 4.11593 10.9008 4.10049 11.2013C4.08631 11.4722 3.87733 11.6834 3.60202 11.6928C3.40305 11.6996 3.20366 11.6902 3.00511 11.6975C2.90541 11.7009 2.88331 11.6577 2.88664 11.5671C2.89207 11.4257 2.8879 11.2837 2.8879 11.1141Z" fill="#F05642"/>
<path d="M2.96338 17.4883C2.96338 17.4772 2.96338 17.4657 2.96338 17.4546C3.02011 17.4601 3.08268 17.4357 3.13023 17.4883H2.9638H2.96338Z" fill="#EDEFF0"/>
<path d="M14.0839 17.4545C14.0839 17.4656 14.0835 17.4771 14.0839 17.4882H13.9175C13.965 17.4352 14.0276 17.46 14.0843 17.4545H14.0839Z" fill="#EDEFF0"/>
<path d="M10.6889 0.0505371C12.0867 1.48456 13.4845 2.91901 14.8827 4.35303C14.8473 4.47143 14.7468 4.45134 14.6646 4.45305C14.3547 4.45904 14.0443 4.45519 13.7344 4.45519C13.1583 4.45519 12.5823 4.45434 12.0066 4.45604C11.9048 4.45604 11.8081 4.44408 11.7196 4.38808C11.0981 4.35645 10.6564 3.88756 10.6551 3.25369C10.6535 2.24496 10.6543 1.2358 10.6551 0.227065C10.6551 0.167225 10.6355 0.100974 10.6889 0.0505371Z" fill="#AFB6BC"/>
<path d="M11.7192 4.38808C12.7103 4.38808 13.7019 4.38808 14.693 4.38594C14.7568 4.38594 14.8273 4.40902 14.8828 4.35303C14.9232 4.38679 14.9157 4.43424 14.9157 4.47869C14.9149 5.53871 14.9136 6.59874 14.9128 7.65876C14.8832 7.63354 14.8511 7.61089 14.8239 7.58311C13.8136 6.54873 12.8038 5.5135 11.7943 4.47826C11.7672 4.45048 11.7443 4.418 11.7197 4.38765L11.7192 4.38808Z" fill="#C9D0D7"/>
<path d="M9.53974 10.1065C9.81087 10.1095 10.0828 10.0791 10.3536 10.1133C10.4862 10.13 10.5692 10.2052 10.5838 10.3407C10.5988 10.4809 10.53 10.5797 10.4078 10.6391C10.3456 10.6694 10.2785 10.6669 10.2117 10.6669C9.87386 10.6669 9.53556 10.672 9.19769 10.6639C9.07881 10.6609 9.04377 10.6993 9.05169 10.8173C9.06129 10.9528 9.05962 11.09 9.05169 11.2259C9.04585 11.3298 9.07964 11.364 9.18226 11.3614C9.45381 11.355 9.72536 11.3589 9.99691 11.3597C10.052 11.3597 10.1079 11.3614 10.1621 11.3713C10.3256 11.402 10.4487 11.5422 10.4399 11.6816C10.4311 11.8171 10.3023 11.9256 10.1283 11.9286C9.82338 11.9337 9.51846 11.938 9.21396 11.9273C9.07839 11.9226 9.04544 11.9688 9.05086 12.0992C9.06045 12.3317 9.05628 12.5646 9.05253 12.7976C9.04919 13.0066 8.95242 13.119 8.78598 13.1177C8.60536 13.1164 8.49399 13.0027 8.49316 12.7997C8.49024 12.0047 8.49024 11.2093 8.49316 10.4142C8.49399 10.2146 8.5745 10.1202 8.77472 10.1091C9.02875 10.095 9.28404 10.1056 9.5389 10.1056L9.53974 10.1065Z" fill="#FEFEFE"/>
<path d="M5.75395 11.6127C5.75395 11.3345 5.75728 11.0562 5.75186 10.778C5.74977 10.6741 5.76813 10.622 5.88618 10.6297C6.13437 10.6459 6.38465 10.6113 6.63242 10.654C6.87644 10.6959 7.06207 10.8267 7.19179 11.0413C7.53426 11.608 7.26396 12.4154 6.67372 12.5574C6.39799 12.6236 6.11059 12.5792 5.82861 12.5843C5.7406 12.586 5.75436 12.5185 5.75436 12.4642C5.75353 12.1804 5.75436 11.8965 5.75395 11.6123V11.6127Z" fill="#F05642"/>
<path d="M13.9168 20.7838C16.0558 20.7838 17.7898 19.007 17.7898 16.8151C17.7898 14.6233 16.0558 12.8464 13.9168 12.8464C11.7777 12.8464 10.0437 14.6233 10.0437 16.8151C10.0437 19.007 11.7777 20.7838 13.9168 20.7838Z" fill="#5ECD84"/>
<path d="M15.6279 16.8883C15.6788 16.9844 15.6658 17.0981 15.5933 17.1849C15.5795 17.2011 15.5641 17.2165 15.5491 17.2319C15.0927 17.6999 14.636 18.168 14.1792 18.6356C14.024 18.7946 13.8105 18.7959 13.6561 18.6381C13.1956 18.1663 12.7359 17.694 12.2742 17.2234C12.1966 17.1439 12.1561 17.055 12.1832 16.9438C12.2274 16.7677 12.436 16.6929 12.5787 16.8015C12.6041 16.8207 12.6262 16.8447 12.6492 16.8682C12.9612 17.1875 13.2732 17.5072 13.5852 17.8265C13.6052 17.8474 13.6261 17.8666 13.6607 17.9008V15.2097C13.6607 15.1798 13.6595 15.1499 13.662 15.12C13.6724 14.9815 13.7817 14.8759 13.9147 14.8755C14.0478 14.8746 14.1583 14.9794 14.1696 15.1174C14.1725 15.1473 14.1713 15.1773 14.1713 15.2072V17.8996C14.2042 17.8683 14.2255 17.8495 14.2451 17.829C14.5613 17.5055 14.8754 17.1806 15.1941 16.86C15.2391 16.8147 15.3 16.775 15.3605 16.7579C15.4685 16.7288 15.5757 16.7895 15.6279 16.8887V16.8883Z" fill="white"/>
<path d="M17.9358 16.0864C17.688 14.7618 16.9835 13.7736 15.8339 13.1222C15.3325 12.8383 14.7902 12.6836 14.2179 12.6439C14.197 12.6426 14.1766 12.6353 14.1562 12.6306H13.6777C13.523 12.6524 13.3665 12.6661 13.2135 12.696C11.9195 12.9473 10.9526 13.6676 10.3169 14.8456C9.95817 15.5106 9.79257 16.2334 9.84137 16.9908C9.94816 18.6527 10.7399 19.8619 12.1944 20.6043C12.788 20.9069 13.4279 21.0364 14.0882 20.9915C15.71 20.8808 16.8884 20.07 17.6154 18.5813C17.8373 18.1269 17.9525 17.6379 17.9863 17.1302C17.9879 17.1066 17.9954 17.0831 17.9996 17.0596V16.5694C17.9783 16.4082 17.9654 16.2454 17.9354 16.0864H17.9358ZM13.9117 20.4748C11.94 20.4701 10.3436 18.8309 10.3448 16.8126C10.3461 14.7904 11.9512 13.1487 13.923 13.1538C15.8943 13.1585 17.4911 14.7977 17.4899 16.816C17.4886 18.8382 15.8831 20.4795 13.9117 20.4748Z" fill="white"/>
</g>
<defs>
<clipPath id="clip0_38_2244">
<rect width="18" height="21" fill="white"/>
</clipPath>
</defs>
</svg>
