<?xml version="1.0" encoding="utf-8"?>
<!-- Generator: Adobe Illustrator 27.2.0, SVG Export Plug-In . SVG Version: 6.00 Build 0)  -->
<svg version="1.1" id="Camada_1" xmlns="http://www.w3.org/2000/svg" xmlns:xlink="http://www.w3.org/1999/xlink" x="0px" y="0px"
	 viewBox="0 0 98 35" style="enable-background:new 0 0 98 35;" xml:space="preserve">
<style type="text/css">
	.st0{fill-rule:evenodd;clip-rule:evenodd;fill:#FFFFFF;}
</style>
<path class="st0" d="M58.3,34.3l0-7.1h-1.2V30c-0.4-0.4-0.8-0.6-1.3-0.6c-1.5,0-2.1,1.5-2.1,2.8c0,1.3,0.6,2.8,2.1,2.8
	c0.5,0,1.1-0.3,1.4-0.7c0.2,0.4,0.5,0.6,0.9,0.6h0.5l0.1,0v-0.2h-0.1C58.5,34.6,58.3,34.5,58.3,34.3L58.3,34.3z M57.1,34
	c-0.2,0.2-0.5,0.4-0.8,0.4c-1.4,0-1.4-1.9-1.4-2.3s0.1-2.3,1.4-2.3c0.3,0,0.6,0.2,0.7,0.4l0.1,0.1l0,3.5
	C57.1,33.9,57.2,33.9,57.1,34L57.1,34L57.1,34z"/>
<path class="st0" d="M61.3,29.3c-1.5,0-2.5,1.4-2.5,2.8c0,1.4,0.9,2.8,2.5,2.8c1.5,0,2.5-1.4,2.5-2.8C63.8,30.8,62.9,29.3,61.3,29.3
	z M61.3,34.7c-1,0-1.2-1.9-1.2-2.5c0-0.6,0.2-2.5,1.2-2.5c1,0,1.2,1.9,1.2,2.5C62.6,32.8,62.3,34.7,61.3,34.7z"/>
<path class="st0" d="M66.9,29.3c-0.6,0-1.2,0.4-1.5,0.9c-0.1-0.5-0.5-0.8-1-0.8H64l-0.1,0v0.2H64c0.2,0,0.4,0.2,0.4,0.4l0,4.8l1.2,0
	v-3.7h0l0-0.1c0-0.6,0.4-1,0.9-1c0.5,0,1,0.4,1,1v3.9h1.2V31C68.6,30.1,67.8,29.3,66.9,29.3L66.9,29.3z"/>
<path class="st0" d="M73.4,34.3v-3.2c0-1-0.8-1.8-1.9-1.8c-1.2,0-1.9,0.4-2.1,1.3l0,0.1h1.1l0-0.1c0-0.7,0.4-1.1,1-1.1
	c0.5,0,0.7,0.8,0.7,1.2v0.9c-0.3-0.2-0.6-0.3-1.1-0.3c-1,0-2,0.5-2,1.8c0,1.1,0.8,1.8,2,1.8c0.5,0,1-0.1,1.3-0.4l0,0
	c0.2,0.2,0.4,0.3,0.7,0.3h0.5l0.1,0v-0.2h-0.1C73.6,34.6,73.4,34.5,73.4,34.3L73.4,34.3z M72.4,34.4c-0.2,0.1-0.5,0.2-0.7,0.2
	c-0.8,0-1.4-0.6-1.4-1.4c0-0.8,0.6-1.4,1.3-1.4c0.2,0,0.4,0.1,0.5,0.2l0,0v1.8C72.2,34,72.3,34.2,72.4,34.4L72.4,34.4L72.4,34.4z"/>
<path class="st0" d="M79,34.6c-0.2,0-0.4-0.2-0.4-0.4l0-7.1h-1.2v2.7c-0.4-0.4-0.8-0.6-1.3-0.6c-1.5,0-2.1,1.5-2.1,2.8
	c0,1.3,0.6,2.8,2.1,2.8c0.5,0,1.1-0.3,1.4-0.7c0.2,0.4,0.5,0.6,0.9,0.6H79l0.1,0v-0.2L79,34.6L79,34.6z M77.4,34
	c-0.2,0.2-0.5,0.4-0.8,0.4c-1.4,0-1.4-1.9-1.4-2.3c0-0.4,0.1-2.3,1.4-2.3c0.3,0,0.6,0.2,0.7,0.4l0.1,0.1l0,3.5
	C77.4,33.9,77.5,33.9,77.4,34L77.4,34z"/>
<path class="st0" d="M83.8,34.2v-4.8l-1.2,0v3.9c0,0.6-0.4,1-0.9,1c-0.5,0-0.9-0.4-0.9-1v-2.8c0-0.6-0.5-1.1-1.1-1.1h-0.5l-0.1,0
	v0.2h0.1c0.2,0,0.4,0.2,0.4,0.4v3.2c0,1,0.7,1.7,1.6,1.7c0.6,0,1.2-0.4,1.4-0.9c0.1,0.5,0.5,0.8,1,0.8h0.5l0.1,0v-0.2h-0.1
	C84,34.6,83.8,34.4,83.8,34.2L83.8,34.2z"/>
<path class="st0" d="M89.2,33.7c-0.3,0.6-0.5,0.7-1.1,0.7h-2l2.6-4.4c0.1-0.2,0.2-0.3,0.5-0.4l0.1-0.1v-0.2l-4.3,0l-0.2,1.2h0.3
	l0-0.1c0.3-0.6,0.5-0.7,1.1-0.7h1.4l-3,5l4.6,0l0.2-1.2L89.2,33.7L89.2,33.7L89.2,33.7z"/>
<path class="st0" d="M94.3,33.7c-0.3,0.6-0.5,0.7-1.1,0.7h-2l2.6-4.4c0.1-0.2,0.2-0.3,0.5-0.4l0.1-0.1v-0.2h-4.3L90,30.6h0.3l0-0.1
	c0.3-0.6,0.5-0.7,1.1-0.7h1.4l-3,5l4.6,0l0.2-1.2L94.3,33.7L94.3,33.7L94.3,33.7z"/>
<path class="st0" d="M96.1,28.9c0.4,0,0.7-0.3,0.7-0.7s-0.3-0.7-0.7-0.7c-0.4,0-0.7,0.3-0.7,0.7C95.4,28.6,95.7,28.9,96.1,28.9z"/>
<path class="st0" d="M95.6,29.4h-0.5l-0.1,0v0.2h0.1c0.2,0,0.4,0.2,0.4,0.4v4.8h1.2v-4.4C96.7,29.9,96.2,29.4,95.6,29.4z"/>
<path class="st0" d="M20.9,2.2V20c0,4.1-3.3,7.5-7.3,7.5c-4,0-7.3-3.4-7.3-7.5V2.2C2.5,4.7,0,9.1,0,14.1c0,7.8,6.1,14.1,13.6,14.1
	c7.5,0,13.6-6.4,13.6-14.1C27.3,9.1,24.7,4.7,20.9,2.2L20.9,2.2z"/>
<path class="st0" d="M11.5,13.4c2.4,0,4.3-2,4.3-4.5c0-2.5-1.9-4.5-4.3-4.5c-2.4,0-4.3,2-4.3,4.5C7.2,11.3,9.1,13.4,11.5,13.4z"/>
<path class="st0" d="M11.5,20.5c0,2.5,1.9,4.5,4.3,4.5s4.3-2,4.3-4.5S18.2,16,15.8,16C13.4,16,11.5,18,11.5,20.5z"/>
<path class="st0" d="M52.7,15.3c0-4.3-1.8-9.4-6.9-9.4c-1.8,0-3.3,0.7-4.6,2.3c-0.6-1.2-1.7-2-3.1-2h-1.5l-0.4,0.1v0.8h0.4
	c0.7,0,1.2,0.5,1.2,1.2v26.6h3.9V22.7c1,1.2,2.1,1.9,4.2,1.9C50.8,24.6,52.7,19.6,52.7,15.3L52.7,15.3z M44.2,22.8
	c-0.9,0-1.7-0.4-2.4-1.2l-0.2-0.3V9.8c0-0.2,0-0.5-0.1-0.7L41.6,9c0.6-0.6,1.6-1.3,2.5-1.3c4.5,0,4.7,6.3,4.7,7.6
	C48.8,18.8,47.6,22.8,44.2,22.8z"/>
<path class="st0" d="M54.7,8.3v16h3.9v-12l0.1-0.6c0.2-0.9,0.7-2.9,2.8-2.9c0.4,0,0.8,0.2,1.1,0.5l0.5,0.6l1-3.8L63.7,6
	c-0.3-0.1-0.7-0.1-1.1-0.1c-2,0-3.4,1.4-4.2,3.1c-0.4-1.6-1.7-2.8-3.4-2.8h-1.5l-0.4,0.1v0.8h0.4C54.2,7.1,54.7,7.7,54.7,8.3
	L54.7,8.3z"/>
<path class="st0" d="M70.7,12.9c-3.2,0-6.6,1.5-6.6,5.9c0,3.7,2.5,5.9,6.7,5.9c1.7,0,3.3-0.4,4.4-1.2l0.1-0.1c0.6,0.6,1.5,1,2.4,1
	h1.5l0.4-0.1v-0.8h-0.4c-0.6,0-1.2-0.6-1.2-1.2V11.8c0-3.4-2.7-5.9-6.2-5.9c-3.9,0-6.2,1.5-7,4.5l-0.1,0.5h3.8l0-0.4
	C68.7,8.2,69.8,7,71.9,7c1.7,0,2.4,2.5,2.4,3.8v3C73.3,13.2,72.2,12.9,70.7,12.9L70.7,12.9z M74.8,22.7L74.8,22.7
	c-0.7,0.4-1.5,0.6-2.4,0.6c-2.6,0-4.5-1.9-4.5-4.5c0-2.6,1.8-4.5,4.4-4.5c0.6,0,1.2,0.2,1.8,0.5l0.2,0.1v5.8
	C74.2,21.4,74.4,22.1,74.8,22.7L74.8,22.7z"/>
<path class="st0" d="M94.9,4.6c1.2,0,2.2-1,2.2-2.3S96.1,0,94.9,0c-1.2,0-2.2,1-2.2,2.3C92.6,3.6,93.6,4.6,94.9,4.6z"/>
<path class="st0" d="M79.2,10c0.8-1.7,1.5-2.3,3.2-2.3v12.4c0,2.3,1.8,4.2,4.1,4.2h2.2l0.4-0.1v-0.8h-0.4c-1.3,0-2.4-1.1-2.4-2.5
	V7.7l3.8,0V6.2h-3.8V1.1h-3.9v5.1h-3.6l-0.5,4h0.8L79.2,10L79.2,10z"/>
<path class="st0" d="M93.3,6.2h-1.9v1.4h0.5c0.6,0,1,0.5,1,1.2v15.5h3.8V9.8C96.8,7.8,95.3,6.2,93.3,6.2z"/>
</svg>
