<svg width="98" height="35" viewBox="0 0 98 35" fill="none" xmlns="http://www.w3.org/2000/svg">
<path fill-rule="evenodd" clip-rule="evenodd" d="M58.3125 34.2692L58.3083 27.2151H57.1432V29.9531C56.7697 29.5371 56.3516 29.3302 55.8296 29.3302C54.2804 29.3302 53.7308 30.8599 53.7329 32.1651C53.7329 33.4747 54.2847 35.0022 55.8338 35C56.3707 35 56.9119 34.7314 57.2557 34.2912C57.4276 34.6522 57.7841 34.9053 58.1958 34.9053H58.6648L58.7794 34.8767V34.6368H58.6648C58.478 34.6368 58.3125 34.4651 58.3104 34.2714L58.3125 34.2692ZM57.1135 34.0491C56.9374 34.2428 56.6403 34.4519 56.3453 34.4519C54.9765 34.4519 54.9065 32.5481 54.9065 32.1651C54.9065 31.7821 54.9744 29.8783 56.3453 29.8783C56.5999 29.8783 56.9013 30.0808 57.0838 30.2789L57.1453 30.3471L57.1496 33.8136C57.1496 33.8775 57.1559 33.9369 57.1666 33.9963L57.1156 34.0513L57.1135 34.0491Z" fill="#642175"/>
<path fill-rule="evenodd" clip-rule="evenodd" d="M61.3408 29.3236C59.8002 29.3258 58.8792 30.7653 58.8792 32.1651C58.8834 33.5561 59.8044 34.9977 61.343 34.9977C62.8815 34.9977 63.8089 33.5495 63.8068 32.1607C63.8068 30.7653 62.8836 29.3236 61.3408 29.3236ZM61.343 34.6632C60.3392 34.6632 60.1121 32.8122 60.1121 32.1607C60.1121 31.5136 60.3371 29.6604 61.3408 29.6604C62.3446 29.6604 62.5738 31.5114 62.5738 32.1607C62.5738 32.81 62.3489 34.6632 61.343 34.6632Z" fill="#642175"/>
<path fill-rule="evenodd" clip-rule="evenodd" d="M66.9114 29.3214C66.279 29.3214 65.7358 29.6934 65.4578 30.2348C65.341 29.7594 64.94 29.4205 64.4413 29.4205H63.9744L63.8577 29.4491V29.6846H63.9744C64.1696 29.6846 64.3267 29.8651 64.3267 30.0829L64.3309 34.9009L65.496 34.8965V31.1614H65.4981L65.5066 31.0536C65.5384 30.4615 65.9246 30.0455 66.4446 30.0455C66.9645 30.0455 67.3995 30.4813 67.3995 31.0448V34.8965H68.5667V31.0404C68.5646 30.094 67.824 29.3214 66.9136 29.3214H66.9114Z" fill="#642175"/>
<path fill-rule="evenodd" clip-rule="evenodd" d="M73.3925 34.2582V31.1064C73.3925 30.0874 72.5819 29.3192 71.5081 29.3192C70.3303 29.3192 69.6384 29.7616 69.3965 30.6684L69.3562 30.8181H70.5043L70.5128 30.7124C70.5573 30.0125 70.8948 29.656 71.5102 29.656C72.0174 29.656 72.2317 30.4131 72.2317 30.8181V31.7359C71.958 31.54 71.6057 31.4322 71.1664 31.4322C70.1966 31.4322 69.1631 31.9076 69.1631 33.2149C69.1631 34.3264 69.9207 34.9933 71.194 34.9933C71.7054 34.9933 72.202 34.8569 72.5224 34.6324L72.5543 34.5928C72.7453 34.7798 72.9978 34.8943 73.2801 34.8943H73.749L73.8615 34.8657V34.6258H73.749C73.5623 34.6258 73.3946 34.4541 73.3946 34.2604L73.3925 34.2582ZM72.3845 34.3969C72.1765 34.5113 71.9325 34.5664 71.6693 34.5664C70.8926 34.5708 70.3069 33.9853 70.3069 33.2127C70.3069 32.4402 70.865 31.8569 71.6375 31.8569C71.8221 31.8569 72.0089 31.9142 72.1829 32.0154L72.2275 32.0374V33.8048C72.2275 34.0183 72.289 34.2186 72.393 34.3903L72.3824 34.3969H72.3845Z" fill="#642175"/>
<path fill-rule="evenodd" clip-rule="evenodd" d="M78.9609 34.6192C78.7763 34.6192 78.6108 34.4497 78.6108 34.2538L78.6065 27.2019H77.4415V29.9377C77.068 29.5217 76.6457 29.317 76.1257 29.317C74.5787 29.317 74.0291 30.8445 74.0291 32.1563C74.0291 33.4681 74.5808 34.989 76.13 34.989C76.669 34.989 77.208 34.7183 77.5582 34.2803C77.7301 34.6412 78.0845 34.8943 78.4962 34.8921H78.963L79.0819 34.8613V34.6214H78.963L78.9609 34.6192ZM77.4096 34.036C77.1804 34.2847 76.894 34.4365 76.6435 34.4365C75.2748 34.4365 75.2047 32.5371 75.2047 32.1497C75.2047 31.7623 75.2705 29.8629 76.6393 29.8629C76.8961 29.8629 77.1953 30.0654 77.3778 30.2613L77.4393 30.3317L77.4436 33.7982C77.4436 33.8621 77.4521 33.9237 77.4606 33.9831L77.4096 34.036Z" fill="#642175"/>
<path fill-rule="evenodd" clip-rule="evenodd" d="M83.8314 34.2253V29.4095L82.6621 29.4117V33.2679C82.626 33.8555 82.2419 34.2583 81.7262 34.2583C81.2105 34.2583 80.8667 33.8907 80.8667 33.2657V30.4968C80.8667 29.8828 80.4041 29.4095 79.8141 29.4095H79.3494L79.2327 29.4382V29.6715H79.3494C79.5425 29.6715 79.7017 29.8541 79.7017 30.0698V33.2635C79.7059 34.2451 80.3744 34.9824 81.2593 34.9824C81.8854 34.9824 82.4244 34.6171 82.7066 34.0844C82.8276 34.5488 83.2244 34.8856 83.7189 34.8856H84.1836L84.3025 34.8548V34.6149H84.1836C83.9905 34.6149 83.8314 34.4388 83.8314 34.2209V34.2253Z" fill="#642175"/>
<path fill-rule="evenodd" clip-rule="evenodd" d="M89.2365 33.7411C88.984 34.3001 88.7548 34.452 88.1755 34.452H86.221L88.8312 30.0742C88.9713 29.8299 89.0795 29.7397 89.3002 29.6693L89.3808 29.6142V29.4073L85.0962 29.4118L84.9328 30.6179H85.1853L85.2172 30.5497C85.4718 29.995 85.6989 29.8453 86.2804 29.8453H87.7043L84.7312 34.89L89.3554 34.8856L89.5188 33.6751H89.2705L89.2344 33.7433L89.2365 33.7411Z" fill="#642175"/>
<path fill-rule="evenodd" clip-rule="evenodd" d="M94.2892 33.7388C94.0388 34.2934 93.8096 34.4475 93.226 34.4475H91.2694L93.8817 30.0719C94.0239 29.8254 94.13 29.7352 94.3528 29.6625L94.4335 29.6053V29.4028H90.1489L89.9876 30.6112H90.238L90.2698 30.5407C90.5224 29.9883 90.7537 29.8364 91.3352 29.8364H92.757L89.7817 34.8811L94.4101 34.8767L94.5757 33.6683H94.3231L94.2913 33.7388H94.2892Z" fill="#642175"/>
<path fill-rule="evenodd" clip-rule="evenodd" d="M96.108 28.923C96.4794 28.923 96.7829 28.6039 96.7829 28.2231C96.7829 27.8423 96.4794 27.5188 96.1059 27.5188C95.7324 27.5188 95.429 27.8335 95.429 28.2231C95.429 28.6127 95.7324 28.923 96.108 28.923Z" fill="#642175"/>
<path fill-rule="evenodd" clip-rule="evenodd" d="M95.637 29.4028H95.1722L95.0576 29.4292V29.6692H95.1722C95.3653 29.6692 95.5266 29.8474 95.5266 30.0653V34.8789H96.6959V30.4879C96.6917 29.876 96.229 29.4028 95.637 29.4028Z" fill="#642175"/>
<path fill-rule="evenodd" clip-rule="evenodd" d="M20.9117 2.18555V20.0201C20.9117 24.1689 17.6393 27.5585 13.639 27.5585C9.6388 27.5585 6.36432 24.1689 6.36432 20.0201V2.18555C2.54446 4.69907 0 9.12084 0 14.1391C0 21.9283 6.12664 28.2848 13.639 28.2848C21.1515 28.2848 27.2781 21.9283 27.2781 14.1391C27.2781 9.12084 24.7336 4.69907 20.9117 2.18335V2.18555Z" fill="#642175"/>
<path fill-rule="evenodd" clip-rule="evenodd" d="M11.4936 13.3578C13.8768 13.3578 15.8207 11.3483 15.8207 8.87219C15.8207 6.39609 13.8789 4.39099 11.4936 4.39099C9.10834 4.39099 7.1687 6.40489 7.1687 8.87219C7.1687 11.3395 9.11047 13.3578 11.4936 13.3578Z" fill="#642175"/>
<path fill-rule="evenodd" clip-rule="evenodd" d="M11.4915 20.5132C11.4915 22.9849 13.4353 25.001 15.8206 25.001C18.2059 25.001 20.1435 22.9827 20.1435 20.5132C20.1435 18.0437 18.1996 16.0298 15.8206 16.0298C13.4417 16.0298 11.4915 18.0437 11.4915 20.5132Z" fill="#642175"/>
<path fill-rule="evenodd" clip-rule="evenodd" d="M52.6633 15.2727C52.6633 10.9499 50.8446 5.90088 45.7302 5.90088C43.9031 5.90088 42.4494 6.64921 41.1506 8.20971C40.5776 7.03438 39.4168 6.21782 38.0629 6.21782H36.518L36.136 6.31907V7.10482H36.518C37.178 7.10482 37.683 7.63305 37.683 8.31756V34.8988H41.5369V22.734C42.5555 23.9445 43.6548 24.6422 45.7302 24.6422C50.8446 24.6422 52.6633 19.5932 52.6633 15.2705V15.2727ZM44.1811 22.8264C43.311 22.8264 42.4982 22.428 41.7703 21.6357L41.5369 21.3782V9.82303C41.5369 9.59192 41.5093 9.37183 41.4711 9.15613L41.5793 9.04168C42.1693 8.43201 43.1773 7.71669 44.0622 7.71669C48.5506 7.71669 48.7797 14.0137 48.7797 15.2727C48.7797 18.7568 47.5744 22.8264 44.1811 22.8264Z" fill="#642175"/>
<path fill-rule="evenodd" clip-rule="evenodd" d="M54.7132 8.31975V24.3275H58.567V12.3123L58.6753 11.6895C58.8323 10.8223 59.4074 8.80617 61.4892 8.80617C61.92 8.80617 62.3296 8.99325 62.5843 9.30579L63.0511 9.87144L64.0867 6.09896L63.7302 5.98231C63.4246 5.88547 63.0617 5.83264 62.6309 5.83264C60.6192 5.83264 59.2058 7.21046 58.4652 8.98225C58.0938 7.40194 56.725 6.22001 55.0952 6.22001H53.5524L53.1704 6.32126V7.10701H53.5524C54.1933 7.10701 54.7111 7.65065 54.7111 8.31975H54.7132Z" fill="#642175"/>
<path fill-rule="evenodd" clip-rule="evenodd" d="M70.7227 12.8912C67.5204 12.8912 64.0952 14.4385 64.0952 18.7678C64.0952 22.4479 66.6057 24.6444 70.8161 24.6444C72.501 24.6444 74.1351 24.1998 75.1962 23.4537L75.3044 23.3128C75.9347 23.9379 76.7751 24.3253 77.7046 24.3253H79.2537L79.6357 24.2285V23.4317H79.2537C78.6319 23.4317 78.0908 22.8682 78.0908 22.2278V11.8083C78.0908 8.43421 75.4105 5.90088 71.8686 5.90088C67.9745 5.90088 65.6911 7.35573 64.8847 10.3579L64.7531 10.8553H68.5411L68.5687 10.4943C68.7173 8.1811 69.8335 7.01237 71.8708 7.01237C73.5388 7.01237 74.2348 9.50829 74.2348 10.8531V13.8772C73.335 13.2345 72.1615 12.889 70.7248 12.889L70.7227 12.8912ZM74.7866 22.6614L74.7484 22.6834C74.0651 23.0509 73.2544 23.2424 72.3907 23.2424C69.8186 23.2424 67.8875 21.3188 67.8875 18.7678C67.8875 16.2169 69.7359 14.2888 72.2931 14.2888C72.8958 14.2888 73.5112 14.4715 74.0799 14.8083L74.2306 14.8721V20.7201C74.2306 21.4354 74.4386 22.1001 74.7845 22.6591L74.7866 22.6614Z" fill="#642175"/>
<path fill-rule="evenodd" clip-rule="evenodd" d="M94.8622 4.63747C96.1016 4.63747 97.0969 3.5986 97.0969 2.31983C97.0969 1.04106 96.0994 0 94.8622 0C93.625 0 92.6255 1.03886 92.6255 2.31983C92.6255 3.60081 93.6293 4.63747 94.8622 4.63747Z" fill="#642175"/>
<path fill-rule="evenodd" clip-rule="evenodd" d="M79.1795 9.99245C79.9605 8.28008 80.6778 7.72984 82.3797 7.65721V20.0795C82.3797 22.4214 84.2154 24.3274 86.4691 24.3274H88.6358L89.0136 24.2306V23.4338H88.6358C87.3095 23.4338 86.2357 22.3223 86.2357 20.9533V7.655L90.0131 7.6506V6.21776H86.2357V1.08948H82.3797V6.21996H78.7827L78.2437 10.2169H79.0734L79.1795 9.99465V9.99245Z" fill="#642175"/>
<path fill-rule="evenodd" clip-rule="evenodd" d="M93.3152 6.21997H91.3967V7.65061H91.9336C92.4939 7.69243 92.9268 8.18325 92.9417 8.80612V24.3274H96.7827V9.82298C96.7827 7.80028 95.2633 6.21997 93.3152 6.21997Z" fill="#642175"/>
</svg>
